<?xml version="1.0" encoding="UTF-8"?>
<svg width="13px" height="14px" viewBox="0 0 13 14" version="1.1" xmlns="http://www.w3.org/2000/svg" xmlns:xlink="http://www.w3.org/1999/xlink">
    <!-- Generator: Sketch 53.2 (72643) - https://sketchapp.com -->
    <title>icon-delete</title>
    <desc>Created with Sketch.</desc>
    <g id="Page-1" stroke="none" stroke-width="1" fill="none" fill-rule="evenodd">
        <g id="icon-delete" fill="#FFFFFF" fill-rule="nonzero">
            <path d="M11.8125,2.33333333 L8.16666667,2.33333333 L8.16666667,1.16666667 C8.16666667,0.525 7.64166667,0 7,0 L5.25,0 C4.60833333,0 4.08333333,0.525 4.08333333,1.16666667 L4.08333333,2.33333333 L0.4375,2.33333333 C0.204166667,2.33333333 0,2.5375 0,2.77083333 L0,3.64583333 C0,3.87916667 0.204166667,4.08333333 0.4375,4.08333333 L11.8125,4.08333333 C12.0458333,4.08333333 12.25,3.87916667 12.25,3.64583333 L12.25,2.77083333 C12.25,2.5375 12.0458333,2.33333333 11.8125,2.33333333 Z M5.25,1.45833333 C5.25,1.28333333 5.36666667,1.16666667 5.54166667,1.16666667 L6.70833333,1.16666667 C6.88333333,1.16666667 7,1.28333333 7,1.45833333 L7,2.33333333 L5.25,2.33333333 L5.25,1.45833333 Z M10.6458333,5.25 L1.60416667,5.25 C1.37083333,5.25 1.16666667,5.45416667 1.16666667,5.6875 L1.16666667,12.5416667 C1.16666667,13.3583333 1.80833333,14 2.625,14 L9.625,14 C10.4416667,14 11.0833333,13.3583333 11.0833333,12.5416667 L11.0833333,5.6875 C11.0833333,5.45416667 10.8791667,5.25 10.6458333,5.25 Z M5.25,11.6666667 C5.25,11.8416667 5.13333333,11.9583333 4.95833333,11.9583333 L4.375,11.9583333 C4.2,11.9583333 4.08333333,11.8416667 4.08333333,11.6666667 L4.08333333,7.58333333 C4.08333333,7.40833333 4.2,7.29166667 4.375,7.29166667 L4.95833333,7.29166667 C5.13333333,7.29166667 5.25,7.40833333 5.25,7.58333333 L5.25,11.6666667 Z M8.16666667,11.6666667 C8.16666667,11.8416667 8.05,11.9583333 7.875,11.9583333 L7.29166667,11.9583333 C7.11666667,11.9583333 7,11.8416667 7,11.6666667 L7,7.58333333 C7,7.40833333 7.11666667,7.29166667 7.29166667,7.29166667 L7.875,7.29166667 C8.05,7.29166667 8.16666667,7.40833333 8.16666667,7.58333333 L8.16666667,11.6666667 Z" id="Shape"></path>
        </g>
    </g>
</svg>