<?xml version="1.0" encoding="UTF-8"?>
<svg width="14px" height="13px" viewBox="0 0 14 13" version="1.1" xmlns="http://www.w3.org/2000/svg" xmlns:xlink="http://www.w3.org/1999/xlink">
    <!-- Generator: Sketch 53.2 (72643) - https://sketchapp.com -->
    <title>icon-cart</title>
    <desc>Created with Sketch.</desc>
    <g id="Page-1" stroke="none" stroke-width="1" fill="none" fill-rule="evenodd">
        <g id="icon-cart" fill="#FFFFFF" fill-rule="nonzero">
            <path d="M5.45714286,6.57142857 L12.2857143,6.57142857 C12.4857143,6.57142857 12.6857143,6.42857143 12.7142857,6.22857143 L13.9714286,1.82857143 C14.0571429,1.51428571 13.8285714,1.25714286 13.5428571,1.25714286 L3,1.25714286 L2.82857143,0.6 C2.74285714,0.285714286 2.45714286,0.0857142857 2.17142857,0.0857142857 L1.02857143,0.0857142857 C0.657142857,0.0857142857 0.314285714,0.371428571 0.285714286,0.742857143 C0.257142857,1.14285714 0.6,1.48571429 0.971428571,1.48571429 L1.62857143,1.48571429 L3.8,8.82857143 C3.88571429,9.14285714 4.14285714,9.34285714 4.45714286,9.34285714 L12.5142857,9.34285714 C12.8857143,9.34285714 13.2285714,9.05714286 13.2571429,8.68571429 C13.2857143,8.28571429 12.9428571,7.94285714 12.5714286,7.94285714 L5.48571429,7.94285714 C5.17142857,7.94285714 4.91428571,7.74285714 4.82857143,7.45714286 L4.82857143,7.42857143 C4.68571429,7 5.02857143,6.57142857 5.45714286,6.57142857 Z" id="Path"></path>
            <circle id="Oval" cx="5.6" cy="11.8857143" r="1.14285714"></circle>
            <circle id="Oval" cx="11.1714286" cy="11.8857143" r="1.14285714"></circle>
        </g>
    </g>
</svg>