<svg width="334" height="172" viewBox="0 0 334 172" fill="none" xmlns="http://www.w3.org/2000/svg">
<g clip-path="url(#clip0)">
<path d="M71.0115 160.983C71.5022 161.308 71.5765 161.757 71.3535 162.181C71.0487 162.766 69.7834 163.059 68.2786 162.21C68.2742 162.814 68.2563 163.493 68.2192 164.285C68.1969 164.738 67.9025 165.814 68.1731 166.089C68.8273 166.754 69.0355 167.298 68.8868 167.995C68.805 168.38 68.289 168.664 67.6601 168.836C67.1412 169.01 66.5048 169.127 65.8535 169.022H65.852C64.1927 168.885 63.5355 168.545 63.5682 167.813C63.5712 167.712 63.589 167.602 63.6202 167.479C63.7541 166.97 63.8715 166.417 63.87 166.02C63.8685 165.887 63.8566 165.77 63.8239 165.68C63.7942 165.589 63.6544 165.293 63.4448 165.137C63.3927 165.099 63.3362 165.069 63.2753 165.052C63.0924 165.004 62.8753 165.084 62.6404 165.439C62.5794 165.53 62.514 165.668 62.4932 165.816C62.4724 165.964 62.4932 166.122 62.6106 166.255C62.6775 166.332 62.7296 166.42 62.7697 166.514C62.8084 166.607 62.8352 166.707 62.8485 166.811C62.9244 167.434 62.5066 168.181 61.5832 168.388C61.1773 168.477 60.7996 168.537 60.4487 168.566C59.396 168.651 58.5916 168.456 58.0578 167.978C57.6995 167.661 57.9968 166.308 58.3016 165.143C56.1159 164.291 55.6728 162.609 55.6728 162.609C56.165 162.882 56.7731 163.496 56.8653 163.133C56.9575 162.774 53.5243 160.54 55.707 156.569C55.6 158.946 56.7018 159.297 56.9055 159.321C57.1077 159.346 57.0556 159.018 56.9367 158.502C57.6608 158.721 58.2139 159.38 58.6154 159.918C58.6332 159.841 58.6421 159.753 58.66 159.677C58.6377 159.33 58.7076 158.89 58.8458 158.42C59.0971 157.578 59.5804 156.654 60.1498 155.978C59.9967 155.902 59.8569 155.825 59.7484 155.753C57.5909 154.287 54.1889 150.468 58.0593 145.321C58.2615 145.054 58.4786 144.809 58.712 144.584C58.3463 139.949 60.9632 141.779 62.1274 142.807C64.0321 142.387 66.1212 142.624 67.8727 143.364C69.1931 142.418 71.6985 141.139 70.9342 145.687C70.9342 145.687 72.5177 151.611 68.5671 154.775C67.8757 155.33 67.1679 155.738 66.4706 156.029C66.5182 156.11 66.542 156.165 66.5539 156.202C66.5687 156.22 66.5821 156.238 66.5985 156.258C67.7582 156.51 67.9367 157.457 67.9367 157.457C67.9292 157.672 67.9619 157.891 68.011 158.187C68.1181 158.351 68.2251 158.515 68.3351 158.694C68.4095 158.813 68.5151 158.953 68.6236 159.096C69.1737 159.392 69.8399 159.455 69.8503 159.457C69.9469 159.448 70.0629 159.472 70.1268 159.485C70.4331 159.547 71.0502 159.535 71.1587 160.085C71.2078 160.335 71.0309 160.471 70.9134 160.596C70.8123 160.702 70.8896 160.903 71.0115 160.983ZM51.3275 142.472C52.7266 143.503 53.9997 144.949 53.4905 146.061C53.1351 146.837 50.7735 148.471 48.4329 146.754C48.2902 146.649 48.1279 146.517 47.9628 146.379C48.0803 146.843 48.1908 147.297 48.3433 147.801C49.7144 152.306 48.875 160.719 49.4318 163.289C50.1229 166.489 52.0313 164.641 52.2383 168.038C52.3279 169.476 45.9552 171.235 43.2746 170.042C41.5131 169.259 44.0175 165.793 38.8241 163.44C37.7273 162.942 36.6878 163.574 37.0264 164.997C37.0264 164.997 39.0242 165.929 38.3191 167.553C37.6307 169.14 31.0985 170.302 29.6687 168.474C28.8055 167.376 29.5204 166.062 29.4365 162.624C29.4225 162.059 28.6992 158.845 28.8992 155.9C29.2854 150.16 30.1486 144.125 30.9251 139.834C30.4158 139.56 30.0464 139.262 29.8925 139.136C29.3203 138.673 28.4431 135.59 30.101 133.149C31.307 131.374 32.6725 130.038 33.3342 129.436C33.4965 129.022 33.6756 128.602 33.8911 128.177C34.6969 126.587 35.2216 122.77 35.3937 121.792C35.5098 121.134 35.8358 119.884 36.4933 118.856C36.3954 118.65 35.9729 117.677 36.5479 117.241C37.1369 116.794 37.5594 117.416 37.6797 117.624C37.6895 117.618 37.6979 117.612 37.7091 117.605C38.8857 116.889 40.3309 116.825 41.3159 117.314C41.4642 117.082 41.8797 116.569 42.4323 116.995C42.9626 117.405 42.7765 118.055 42.5359 118.515C42.631 118.653 42.7191 118.795 42.8059 118.939C42.8744 118.961 42.9374 118.986 42.9877 119.02C43.1109 119.106 43.3725 119.225 43.6383 119.421C44.5869 119.438 44.8317 120.154 44.4162 120.719C44.4022 120.737 44.3882 120.743 44.3742 120.757C44.3966 121.031 44.3854 121.334 44.2861 121.704C44.1014 122.401 43.802 122.856 43.4704 123.148C43.3879 123.537 43.2829 123.938 43.1249 124.37C42.7681 125.335 44.0482 128.39 44.9828 130.202C46.8561 132.722 48.3713 136.702 49.1394 139.187C49.4374 140.159 50.1481 141.601 51.3275 142.472Z" fill="#C2E8FF"/>
<path fill-rule="evenodd" clip-rule="evenodd" d="M293.258 169.046H179.18C179.135 168.528 179.112 168.003 179.112 167.473C179.112 157.983 186.554 150.289 195.736 150.289C198.259 150.289 200.65 150.87 202.792 151.91C206.416 144.573 213.799 139.549 222.318 139.549C231.596 139.549 239.526 145.508 242.72 153.924C243.903 153.316 245.236 152.974 246.647 152.974C248.258 152.974 249.769 153.42 251.069 154.199C254.32 149.553 259.61 146.53 265.583 146.53C274.362 146.53 281.665 153.061 283.188 161.677C283.638 161.604 284.1 161.566 284.57 161.566C288.903 161.566 292.507 164.791 293.258 169.046Z" fill="#C2E8FF"/>
<path fill-rule="evenodd" clip-rule="evenodd" d="M212.693 169.021C210.805 164.485 206.471 161.312 201.427 161.312C200.037 161.312 198.701 161.553 197.455 161.997C195.091 158.266 191.031 155.804 186.419 155.804C182.008 155.804 178.102 158.056 175.701 161.517C174.741 160.936 173.625 160.604 172.435 160.604C171.394 160.604 170.409 160.859 169.536 161.311C167.177 155.043 161.321 150.604 154.47 150.604C148.179 150.604 142.726 154.346 140.051 159.811C138.469 159.037 136.703 158.604 134.84 158.604C128.841 158.604 123.847 163.09 122.776 169.021H212.693Z" fill="#C2E8FF"/>
<path fill-rule="evenodd" clip-rule="evenodd" d="M167.317 123.249H212.501L235.823 169.174H144.43L167.317 123.249Z" fill="#C2E8FF"/>
<path d="M214.42 125.078H169.062V129.202H214.42V125.078Z" fill="white"/>
<path fill-rule="evenodd" clip-rule="evenodd" d="M167 123.016L143.634 169.749L167 123.016Z" stroke="#8CD3F8" stroke-width="3" stroke-linecap="round" stroke-linejoin="round"/>
<path fill-rule="evenodd" clip-rule="evenodd" d="M167 123.016H211.52V123.016C212.034 123.016 212.506 123.304 212.742 123.762L235.38 167.745C235.728 168.42 235.462 169.249 234.787 169.597C234.593 169.697 234.377 169.749 234.158 169.749H191.892C191.377 169.749 190.905 169.461 190.67 169.003L167 123.016Z" stroke="#8CD3F8" stroke-width="3" stroke-linecap="round" stroke-linejoin="round"/>
<path d="M2.74902 169.749H10.9959M19.2429 169.749H331.251H19.2429Z" stroke="#8CD3F8" stroke-width="3" stroke-linecap="round"/>
<path d="M167 127.14V169.749" stroke="#8CD3F8" stroke-width="3"/>
<path d="M142.259 160.128V168.374M191.741 160.128V168.374V160.128Z" stroke="#8CD3F8" stroke-width="3" stroke-linecap="round" stroke-linejoin="round"/>
<path d="M84.5309 167.672C87.1878 167.672 89.3416 165.509 89.3416 162.841C89.3416 160.173 87.1878 158.009 84.5309 158.009C81.874 158.009 79.7202 160.173 79.7202 162.841C79.7202 165.509 81.874 167.672 84.5309 167.672Z" fill="#C2E8FF"/>
<path d="M96.9013 167.672C99.5582 167.672 101.712 165.509 101.712 162.841C101.712 160.173 99.5582 158.009 96.9013 158.009C94.2444 158.009 92.0906 160.173 92.0906 162.841C92.0906 165.509 94.2444 167.672 96.9013 167.672Z" fill="#C2E8FF"/>
<path d="M108.584 167.672C111.241 167.672 113.395 165.509 113.395 162.841C113.395 160.173 111.241 158.009 108.584 158.009C105.928 158.009 103.774 160.173 103.774 162.841C103.774 165.509 105.928 167.672 108.584 167.672Z" fill="#C2E8FF"/>
<path d="M97.1766 150.418C97.1766 150.418 98.7407 145.555 92.0528 145.555C85.365 145.555 88.2112 145.555 82.7955 145.555C77.3799 145.555 77.7823 138.792 82.6206 138.747H110.79C110.79 138.747 122.682 138.792 125.498 138.747C131.354 138.792 131.351 129.994 125.498 129.994H67.3171C58.1089 129.994 58.3455 119.251 67.1391 119.296C75.9328 119.251 95.9094 119.296 104.526 119.296C107.06 119.296 111.584 119.017 111.584 113.461C111.584 110.042 111.727 109.19 111.727 107.626" stroke="url(#paint0_linear)" stroke-width="3" stroke-linecap="round"/>
<path d="M84.5309 167.672C87.1878 167.672 89.3416 165.509 89.3416 162.841C89.3416 160.173 87.1878 158.009 84.5309 158.009C81.874 158.009 79.7202 160.173 79.7202 162.841C79.7202 165.509 81.874 167.672 84.5309 167.672Z" stroke="#8CD3F8" stroke-width="3"/>
<path d="M96.9013 167.672C99.5582 167.672 101.712 165.509 101.712 162.841C101.712 160.173 99.5582 158.009 96.9013 158.009C94.2444 158.009 92.0906 160.173 92.0906 162.841C92.0906 165.509 94.2444 167.672 96.9013 167.672Z" stroke="#8CD3F8" stroke-width="3"/>
<path d="M108.584 167.672C111.241 167.672 113.395 165.509 113.395 162.841C113.395 160.173 111.241 158.009 108.584 158.009C105.928 158.009 103.774 160.173 103.774 162.841C103.774 165.509 105.928 167.672 108.584 167.672Z" stroke="#8CD3F8" stroke-width="3"/>
<path d="M162.972 78.1955L152.605 119.1M235.243 78.6808L234.052 83.3825L235.243 78.6808ZM206.379 78.6808L205.664 81.5018L206.379 78.6808ZM220.811 78.6808L218.428 88.0842L220.811 78.6808ZM191.947 78.6808L189.564 88.0842L191.947 78.6808ZM203.974 88.3866L201.591 97.79L203.974 88.3866ZM199.644 105.372L197.976 111.954L199.644 105.372ZM216.482 95.666L212.192 112.592L216.482 95.666ZM187.617 95.666L183.328 112.592L187.617 95.666ZM177.515 78.6808L175.132 88.0842L177.515 78.6808ZM173.185 95.666L168.895 112.592L173.185 95.666ZM106.317 69.9456L103.933 79.3489L106.317 69.9456ZM101.987 86.9308L97.6971 103.857L101.987 86.9308ZM135.662 70.9162L133.279 80.3195L135.662 70.9162ZM131.332 87.9014L127.042 104.827L131.332 87.9014ZM149.613 77.2249L146.753 88.509L149.613 77.2249ZM144.321 95.666L141.461 106.95L144.321 95.666ZM139.51 115.078L137.485 123.071L139.51 115.078Z" stroke="#C2E8FF" stroke-width="3" stroke-linecap="round"/>
<path opacity="0.8" d="M150.804 126.239L149.613 130.941" stroke="#C2E8FF" stroke-width="3" stroke-linecap="round"/>
<path opacity="0.7" d="M231.395 94.6954L229.25 103.158" stroke="#C2E8FF" stroke-width="3" stroke-linecap="round"/>
<path d="M227.065 110.71L223.729 123.875M121.23 70.4309L120.038 75.1325L121.23 70.4309ZM117.381 86.4455L115.236 94.9085L117.381 86.4455ZM91.4034 68.975L90.6885 71.796L91.4034 68.975ZM88.9981 78.6808L86.6149 88.0842L88.9981 78.6808ZM83.7063 97.6072L82.0381 104.19L83.7063 97.6072Z" stroke="#C2E8FF" stroke-width="3" stroke-linecap="round"/>
<path fill-rule="evenodd" clip-rule="evenodd" d="M235.844 36.1637C239.366 32.5262 244.474 30.2387 250.156 30.2387C260.295 30.2387 268.602 37.5192 269.345 46.757C269.59 46.7408 269.837 46.7325 270.087 46.7325C275.78 46.7325 280.395 51.0402 280.395 56.3539C280.395 61.4521 276.147 65.6242 270.774 65.9543V65.9753H162.189V65.8911C161.106 65.9468 159.961 65.9753 158.753 65.9753C148.392 65.9753 144.268 62.7012 142.635 57.7284H78.3458V57.6379C73.6831 57.0186 70.0989 53.2951 70.0989 48.7942C70.0989 43.86 74.4065 39.8601 79.7203 39.8601C82.1139 39.8601 84.3035 40.6718 85.987 42.0149C85.9331 41.5331 85.9055 41.0435 85.9055 40.5473C85.9055 33.3358 91.7516 27.4897 98.9631 27.4897C104.302 27.4897 108.892 30.6935 110.916 35.2833C112.474 32.2976 115.768 30.2387 119.58 30.2387C121.857 30.2387 123.949 30.973 125.597 32.2005C127.65 23.9874 135.562 17.8683 145.008 17.8683C149.765 17.8683 154.132 19.4197 157.559 22.0087C162.352 10.7362 174.311 2.74897 188.305 2.74897C206.241 2.74897 220.834 15.8712 221.282 32.2141C222.586 31.8237 223.975 31.6132 225.416 31.6132C229.586 31.6132 233.323 33.3777 235.844 36.1637Z" fill="white" stroke="#C2E8FF" stroke-width="3" stroke-linecap="round" stroke-linejoin="round"/>
<path d="M142.462 59.0344C141.173 54.3273 141.665 50.4444 143.937 47.3855C144.853 46.1513 147.598 44.1815 150.086 44.25" stroke="#C2E8FF" stroke-width="3" stroke-linecap="round" stroke-linejoin="round"/>
<path fill-rule="evenodd" clip-rule="evenodd" d="M271.352 127.542L279.377 155.239C279.799 156.697 278.96 158.222 277.502 158.645C277.253 158.717 276.995 158.753 276.737 158.753H260.687C259.169 158.753 257.938 157.522 257.938 156.004C257.938 155.745 257.975 155.488 258.047 155.239L266.072 127.542C266.494 126.084 268.019 125.244 269.477 125.666C270.382 125.929 271.09 126.636 271.352 127.542Z" fill="#C2E8FF"/>
<path fill-rule="evenodd" clip-rule="evenodd" d="M268.712 121.865L280.395 158.753H257.029L268.712 121.865Z" stroke="#8CD3F8" stroke-width="3" stroke-linecap="round" stroke-linejoin="round"/>
<path fill-rule="evenodd" clip-rule="evenodd" d="M268.712 125.988C268.712 154.118 268.712 168.476 268.712 169.062C268.712 168.476 268.712 154.118 268.712 125.988Z" stroke="#8CD3F8" stroke-width="3" stroke-linecap="round"/>
<path fill-rule="evenodd" clip-rule="evenodd" d="M274.21 144.544C270.545 148.984 268.712 151.275 268.712 151.416C268.712 151.275 270.545 148.984 274.21 144.544Z" stroke="#8CD3F8" stroke-width="3" stroke-linecap="round" stroke-linejoin="round"/>
<path fill-rule="evenodd" clip-rule="evenodd" d="M243.729 97.5885L260.569 155.233C260.995 156.691 260.159 158.217 258.701 158.643C258.451 158.716 258.192 158.753 257.931 158.753H229.528C228.01 158.753 226.779 157.522 226.779 156.004C226.779 155.743 226.816 155.484 226.889 155.233L243.729 97.5885Z" fill="#C2E8FF"/>
<path fill-rule="evenodd" clip-rule="evenodd" d="M243.971 98.963L261.84 158.753H226.103L243.971 98.963Z" stroke="#8CD3F8" stroke-width="3" stroke-linecap="round" stroke-linejoin="round"/>
<path fill-rule="evenodd" clip-rule="evenodd" d="M243.971 103.086C243.971 145.968 243.971 167.96 243.971 169.062C243.971 167.96 243.971 145.968 243.971 103.086Z" stroke="#8CD3F8" stroke-width="3" stroke-linecap="round"/>
<path fill-rule="evenodd" clip-rule="evenodd" d="M236.17 129.202C241.209 134.066 243.729 136.586 243.729 136.761C243.729 136.586 241.209 134.066 236.17 129.202ZM244.416 145.695C250.831 138.19 254.038 134.525 254.038 134.7C254.038 134.525 250.831 138.19 244.416 145.695Z" stroke="#8CD3F8" stroke-width="3" stroke-linecap="round" stroke-linejoin="round"/>
</g>
<defs>
<linearGradient id="paint0_linear" x1="95.1832" y1="107.626" x2="95.1832" y2="141.096" gradientUnits="userSpaceOnUse">
<stop stop-color="white"/>
<stop offset="1" stop-color="#C2E8FF"/>
</linearGradient>
<clipPath id="clip0">
<rect width="334" height="171.811" fill="white"/>
</clipPath>
</defs>
</svg>
